<svg width="640" height="138" viewBox="0 0 640 138" fill="none" xmlns="http://www.w3.org/2000/svg">
<path d="M30.36 108.251C21.6493 108.251 14.514 106.676 8.954 103.525C3.394 100.374 0.614 96.575 0.614 92.127C0.614 89.625 1.35533 87.7253 2.838 86.428C4.41333 85.1307 6.452 84.482 8.954 84.482C11.6413 84.482 13.819 85.455 15.487 87.401C17.155 89.2543 18.3133 91.3393 18.962 93.656C19.7033 95.9727 21.0007 98.104 22.854 100.05C24.8 101.903 27.302 102.83 30.36 102.83C33.3253 102.83 35.7347 102.042 37.588 100.467C39.534 98.8917 40.507 96.6213 40.507 93.656C40.507 90.32 39.1633 87.679 36.476 85.733C33.8813 83.787 30.6843 82.3507 26.885 81.424C23.0857 80.4047 19.2863 79.2927 15.487 78.088C11.6877 76.7907 8.44433 74.613 5.757 71.555C3.16233 68.4043 1.865 64.327 1.865 59.323C1.865 53.3923 4.45967 48.5273 9.649 44.728C14.931 40.836 21.742 38.89 30.082 38.89C38.5147 38.89 45.372 40.558 50.654 43.894C56.0287 47.1373 58.716 51.0293 58.716 55.57C58.716 57.6087 57.9283 59.323 56.353 60.713C54.8703 62.103 53.017 62.798 50.793 62.798C48.1983 62.798 46.1133 61.8713 44.538 60.018C42.9627 58.072 41.8507 55.987 41.202 53.763C40.5533 51.4463 39.395 49.3613 37.727 47.508C36.059 45.562 33.8813 44.589 31.194 44.589C28.5067 44.589 26.329 45.5157 24.661 47.369C22.993 49.1297 22.159 51.3073 22.159 53.902C22.159 56.4967 22.854 58.6743 24.244 60.435C25.634 62.1957 27.441 63.5393 29.665 64.466C31.889 65.3927 34.3447 66.273 37.032 67.107C39.7193 67.8483 42.4067 68.7287 45.094 69.748C47.874 70.6747 50.376 71.833 52.6 73.223C54.824 74.613 56.631 76.6053 58.021 79.2C59.411 81.702 60.106 84.76 60.106 88.374C60.106 94.1193 57.4187 98.8917 52.044 102.691C46.6693 106.398 39.4413 108.251 30.36 108.251ZM133.655 92.822C133.655 95.324 133.979 97.2237 134.628 98.521C135.369 99.7257 136.157 100.421 136.991 100.606C137.825 100.699 138.566 100.977 139.215 101.44C139.956 101.903 140.327 102.691 140.327 103.803C140.327 106.49 136.203 107.834 127.956 107.834C123.878 107.834 120.82 107.185 118.782 105.888C116.836 104.498 115.77 102.135 115.585 98.799C111.693 105.193 104.974 108.39 95.4297 108.39C87.9237 108.39 81.715 105.888 76.8037 100.884C71.985 95.7873 69.5757 88.652 69.5757 79.478V55.987C69.5757 53.6703 68.649 51.539 66.7957 49.593C65.035 47.5543 64.1547 46.1643 64.1547 45.423V45.006C64.1547 43.338 65.1277 42.365 67.0737 42.087L84.5877 39.446C88.387 38.9827 90.2867 39.8167 90.2867 41.948L89.8697 81.563C89.8697 94.1657 93.7153 100.467 101.407 100.467C104.835 100.467 107.662 98.9843 109.886 96.019C112.202 92.961 113.361 89.0227 113.361 84.204V55.987C113.361 53.6703 112.434 51.539 110.581 49.593C108.727 47.5543 107.801 46.1643 107.801 45.423V45.006C107.801 43.338 108.727 42.365 110.581 42.087L128.373 39.446C131.894 39.0753 133.655 39.9093 133.655 41.948V92.822ZM186.137 38.89C194.848 38.89 202.447 41.9017 208.933 47.925C215.42 53.9483 218.663 62.1493 218.663 72.528C218.663 82.9993 215.466 91.6173 209.072 98.382C202.771 105.054 195.172 108.39 186.276 108.39C179.79 108.39 174.369 106.583 170.013 102.969V123.68C170.013 125.904 170.986 127.989 172.932 129.935C174.878 131.881 175.851 133.317 175.851 134.244V134.8C175.851 136.375 174.786 137.163 172.654 137.163H147.495C145.364 137.163 144.298 136.375 144.298 134.8V134.244C144.298 133.317 145.179 131.881 146.939 129.935C148.793 127.989 149.719 125.904 149.719 123.68V61.13C149.719 59.0913 148.654 57.238 146.522 55.57C144.391 53.8093 143.325 52.4193 143.325 51.4V50.705C143.325 49.4077 144.252 48.2957 146.105 47.369L161.673 39.724C165.195 37.9633 166.955 38.7973 166.955 42.226L166.816 48.064C170.708 41.948 177.149 38.89 186.137 38.89ZM184.191 102.413C188.639 102.413 192.068 100.56 194.477 96.853C196.979 93.1463 198.23 87.818 198.23 80.868C198.23 71.416 196.701 63.076 193.643 55.848C190.585 48.5273 186.462 44.867 181.272 44.867C178.4 44.867 175.898 45.9327 173.766 48.064C171.635 50.1027 170.384 52.79 170.013 56.126V82.675C170.013 88.0497 171.45 92.683 174.322 96.575C177.195 100.467 180.485 102.413 184.191 102.413ZM287.677 93.1C287.955 95.2313 288.465 96.9457 289.206 98.243C290.04 99.5403 290.874 100.374 291.708 100.745C292.542 101.023 293.283 101.394 293.932 101.857C294.581 102.32 294.905 102.969 294.905 103.803C294.905 106.49 290.457 107.834 281.561 107.834C277.484 107.834 274.472 107.324 272.526 106.305C270.673 105.193 269.561 103.201 269.19 100.328C265.576 105.703 259.414 108.39 250.703 108.39C242.919 108.39 236.618 106.583 231.799 102.969C226.98 99.355 224.571 94.1657 224.571 87.401C224.478 80.729 226.841 75.5397 231.66 71.833C236.479 68.1263 242.502 66.273 249.73 66.273C255.846 66.273 260.896 67.663 264.881 70.443L264.742 68.775C263.815 59.9717 262.518 53.763 260.85 50.149C259.182 46.535 256.356 44.728 252.371 44.728C249.869 44.728 247.83 45.6547 246.255 47.508C244.68 49.3613 243.568 51.4 242.919 53.624C242.27 55.848 241.205 57.8867 239.722 59.74C238.239 61.5933 236.34 62.52 234.023 62.52C231.521 62.52 229.482 61.825 227.907 60.435C226.424 58.9523 225.683 57.0527 225.683 54.736C225.683 49.9173 228.231 46.0717 233.328 43.199C238.517 40.3263 244.865 38.89 252.371 38.89C261.36 38.89 268.727 41.4383 274.472 46.535C280.217 51.6317 283.6 58.5817 284.619 67.385L287.677 93.1ZM256.819 102.274C259.877 102.274 262.333 101.023 264.186 98.521C266.039 95.9263 266.873 93.0073 266.688 89.764L266.271 84.899C265.9 80.9143 264.696 77.8563 262.657 75.725C260.711 73.5937 258.255 72.528 255.29 72.528C252.325 72.528 249.869 73.5937 247.923 75.725C246.07 77.8563 245.143 80.6827 245.143 84.204C245.143 89.208 246.209 93.4707 248.34 96.992C250.564 100.513 253.39 102.274 256.819 102.274ZM364.528 93.656C364.528 95.7873 365.455 97.8723 367.308 99.911C369.161 101.857 370.088 103.293 370.088 104.22V104.637C370.088 106.212 369.161 107 367.308 107H350.072C347.941 107 346.875 105.981 346.875 103.942L346.597 100.884C342.334 105.888 336.311 108.39 328.527 108.39C319.538 108.39 311.847 105.286 305.453 99.077C299.059 92.7757 295.862 84.2503 295.862 73.501C295.862 63.4003 299.059 55.1067 305.453 48.62C311.847 42.1333 319.585 38.89 328.666 38.89C335.153 38.89 340.574 40.697 344.929 44.311V22.071C344.929 20.2177 344.327 18.6887 343.122 17.484C342.01 16.2793 340.852 15.26 339.647 14.426C338.535 13.592 337.979 12.7117 337.979 11.785V11.368C337.979 9.79266 338.952 8.72699 340.898 8.171L359.107 2.61099C362.721 1.40633 364.528 2.33299 364.528 5.391V93.656ZM333.114 102.413C336.265 102.413 338.998 101.116 341.315 98.521C343.724 95.8337 344.929 92.1733 344.929 87.54V63.076C344.929 58.5353 343.4 54.3653 340.342 50.566C337.284 46.7667 333.763 44.867 329.778 44.867C325.515 44.867 322.133 46.674 319.631 50.288C317.129 53.8093 315.832 58.8133 315.739 65.3C315.554 70.582 316.063 76.003 317.268 81.563C318.565 87.123 320.604 91.988 323.384 96.158C326.257 100.235 329.5 102.32 333.114 102.413ZM432.029 85.872C432.863 84.76 433.882 84.3893 435.087 84.76C436.292 85.1307 436.848 86.011 436.755 87.401C436.292 92.2197 433.512 96.9457 428.415 101.579C423.318 106.12 416.693 108.39 408.538 108.39C398.715 108.39 390.653 105.147 384.352 98.66C378.051 92.1733 374.9 83.648 374.9 73.084C374.9 63.1687 378.19 55.014 384.769 48.62C391.348 42.1333 399.271 38.89 408.538 38.89C416.971 38.89 423.457 40.8823 427.998 44.867C432.539 48.8517 434.809 53.4387 434.809 58.628C434.809 62.8907 432.77 65.9487 428.693 67.802L397.835 81.841C401.634 89.903 407.75 93.934 416.183 93.934C419.704 93.934 422.855 93.1927 425.635 91.71C428.508 90.1347 430.639 88.1887 432.029 85.872ZM406.036 45.006C402.422 45.006 399.549 46.7667 397.418 50.288C395.287 53.7167 394.221 58.1183 394.221 63.493C394.221 68.0337 394.684 72.0183 395.611 75.447L413.542 66.412C415.951 65.2073 417.156 63.0297 417.156 59.879C417.156 56.7283 416.137 53.485 414.098 50.149C412.059 46.7203 409.372 45.006 406.036 45.006ZM557.243 93.517C557.429 95.741 558.309 97.826 559.884 99.772C561.46 101.718 562.247 103.201 562.247 104.22V104.776C562.247 106.351 561.228 107.139 559.189 107.139H535.142C533.011 107.139 531.945 106.351 531.945 104.776V104.22C531.945 103.293 532.779 101.857 534.447 99.911C536.208 97.965 536.996 95.88 536.81 93.656L535.42 68.219C535.05 60.5277 533.891 55.0603 531.945 51.817C529.999 48.481 527.127 46.813 523.327 46.813C520.084 46.813 517.443 48.1567 515.404 50.844C513.366 53.5313 512.254 57.0063 512.068 61.269C512.439 63.1223 512.624 65.3463 512.624 67.941V93.656C512.624 95.88 513.412 97.965 514.987 99.911C516.655 101.857 517.489 103.293 517.489 104.22V104.776C517.489 106.351 516.47 107.139 514.431 107.139H490.384C488.253 107.139 487.187 106.351 487.187 104.776V104.22C487.187 103.293 488.021 101.857 489.689 99.911C491.357 97.965 492.191 95.88 492.191 93.656V66.551C492.191 60.2497 491.079 55.3847 488.855 51.956C486.631 48.5273 483.712 46.813 480.098 46.813C476.392 46.813 473.473 48.2493 471.341 51.122C469.21 53.9947 468.144 57.7013 468.144 62.242V93.656C468.144 95.88 469.117 97.965 471.063 99.911C473.102 101.857 474.121 103.293 474.121 104.22V104.776C474.121 106.351 473.056 107.139 470.924 107.139H445.07C442.939 107.139 441.873 106.351 441.873 104.776V104.22C441.873 103.293 442.846 101.857 444.792 99.911C446.831 97.965 447.85 95.88 447.85 93.656V61.269C447.85 59.5083 447.294 58.0257 446.182 56.821C445.07 55.6163 443.912 54.597 442.707 53.763C441.595 52.8363 441.039 51.9097 441.039 50.983V50.427C441.039 49.4077 442.012 48.4347 443.958 47.508L461.472 39.446C463.048 38.7047 464.252 38.6583 465.086 39.307C465.92 39.863 466.337 40.8823 466.337 42.365V48.898C470.693 42.226 477.087 38.89 485.519 38.89C496.083 38.89 503.775 43.06 508.593 51.4C510.447 47.508 513.227 44.45 516.933 42.226C520.733 40.002 524.995 38.89 529.721 38.89C536.764 38.89 542.648 41.253 547.374 45.979C552.1 50.6123 554.834 58.211 555.575 68.775L557.243 93.517ZM604.044 108.39C593.017 108.39 583.889 105.008 576.661 98.243C569.526 91.3857 565.958 83.0457 565.958 73.223C565.958 63.3077 569.48 55.1067 576.522 48.62C583.565 42.1333 592.044 38.89 601.959 38.89C612.616 38.89 621.512 42.2723 628.647 49.037C635.783 55.709 639.35 64.0027 639.35 73.918C639.35 83.8333 635.968 92.0807 629.203 98.66C622.531 105.147 614.145 108.39 604.044 108.39ZM606.546 102.274C610.346 102.274 613.265 100.513 615.303 96.992C617.435 93.4707 618.5 88.513 618.5 82.119C618.5 76.837 617.713 71.416 616.137 65.856C614.655 60.2033 612.384 55.3383 609.326 51.261C606.268 47.091 602.886 45.006 599.179 45.006C590.654 45.006 586.391 51.7707 586.391 65.3C586.391 70.304 587.133 75.586 588.615 81.146C590.191 86.706 592.554 91.6173 595.704 95.88C598.948 100.143 602.562 102.274 606.546 102.274Z" fill="#011627"/>
</svg>
